<?xml version="1.0" standalone="no"?>
<!DOCTYPE svg PUBLIC "-//W3C//DTD SVG 1.1//EN" "http://www.w3.org/Graphics/SVG/1.1/DTD/svg11.dtd" >
<!--
2013-9-30: Created.
-->
<svg>
<metadata>
Created by iconfont
</metadata>
<defs>

<font id="iconfont" horiz-adv-x="1024" >
  <font-face
    font-family="iconfont"
    font-weight="500"
    font-stretch="normal"
    units-per-em="1024"
    ascent="896"
    descent="-128"
  />
    <missing-glyph />
    
    <glyph glyph-name="lianxiren" unicode="&#58964;" d="M620.744191 357.120816c82.736353 40.523949 140.308583 124.785028 140.308583 222.936465 0 137.367601-111.714338 249.080915-249.02668 249.080915-137.367601 0-249.080915-111.713314-249.080915-249.080915 0-98.151437 57.57223-182.412516 140.363841-222.936465C235.330238 309.57084699999996 111.796714 155.26343499999996 111.796714-27.694503000000054c0-18.464537 15.032368-33.443693 33.496905-33.443693 18.464537 0 33.497928 14.979156 33.497928 33.443693 0 183.774537 149.46001 333.343017 333.234547 333.343017 183.77556 0 333.234547-149.568481 333.234547-333.343017 0-18.464537 14.978133-33.443693 33.443693-33.443693 18.519796 0 33.496905 14.979156 33.496905 33.443693C912.20124 155.26343499999996 788.668739 309.57084699999996 620.744191 357.120816zM329.886801 580.057281c0 100.438527 81.70179 182.194552 182.140317 182.194552 100.384291 0 182.086082-81.756025 182.086082-182.194552 0-100.384291-81.702813-182.086082-182.086082-182.086082C411.587568 397.9712 329.886801 479.67299 329.886801 580.057281z"  horiz-adv-x="1024" />

    
    <glyph glyph-name="mima" unicode="&#59001;" d="M820.332902 548.973332C806.790468 705.685513 675.157475 829.138196 515.032568 829.138196c-160.124907 0-291.702642-123.452683-305.190841-280.110629l-5.741771 0c-44.311205 0-80.387865-36.07666-80.387865-80.387865l0-449.390034c0-44.311205 36.07666-80.387865 80.387865-80.387865l615.800088 0c44.310182 0 80.387865 36.07666 80.387865 80.387865L900.287909 468.639702C900.286885 512.841414 864.427166 548.756391 820.332902 548.973332zM515.032568 770.634758c127.731126 0 232.06231-97.343025 245.497297-221.608214L269.644765 549.026544C283.078729 673.291732 387.301442 770.634758 515.032568 770.634758zM844.816526 19.249669c0-13.488199-11.374048-24.918529-24.917506-24.918529L204.099956-5.668861c-13.541411 0-24.918529 11.43033-24.918529 24.918529L179.181427 468.639702c0 13.759375 11.159154 24.918529 24.918529 24.918529l32.285311 0c0.433882 0 0.86674-0.271176 1.300622-0.271176 0.488117 0 0.86674 0.271176 1.353834 0.271176L791.080671 493.558232c0.433882 0 0.867764-0.271176 1.299599-0.271176 0.488117 0 0.867764 0.271176 1.354857 0.271176l26.163893 0c13.758352 0 24.917506-11.158131 24.917506-24.918529L844.816526 19.249669zM514.057357 339.716424c-30.605042 0-55.469336-24.863271-55.469336-55.469336 0-23.99653 15.492856-43.98477 36.890188-51.732222-0.271176-1.246387-0.75827-2.38328-0.75827-3.683902l0-55.469336c0-10.67206 8.613168-19.338441 19.337417-19.338441 10.618848 0 19.285229 8.667404 19.285229 19.338441l0 55.469336c0 1.300622-0.488117 2.437515-0.757247 3.683902 21.395286 7.746428 36.9434 27.735691 36.9434 51.732222C569.527716 314.853154 544.61021 339.716424 514.057357 339.716424z"  horiz-adv-x="1024" />

    
    <glyph glyph-name="daohang-jifeiguanli" unicode="&#58905;" d="M115.712 790.016l706.56 0 0-162.816-706.56 0 0 162.816ZM215.04 575.488l706.56 0 0-162.816-706.56 0 0 162.816ZM141.312 197.632h415.744a221.184 221.184 0 0 0 7.168 22.016 236.032 236.032 0 0 0 51.2 74.24 247.296 247.296 0 0 0 74.752 51.2 221.696 221.696 0 0 0 64.512 15.872h-614.4a25.6 25.6 0 0 1-25.6-25.6v-111.616a25.6 25.6 0 0 1 26.624-26.112zM545.28 128v17.408H141.312a25.6 25.6 0 0 1-25.6-25.6v-111.616a25.6 25.6 0 0 1 25.6-25.6h456.192a244.224 244.224 0 0 0-33.28 51.2 227.328 227.328 0 0 0-18.944 94.208zM945.664 197.632a179.2 179.2 0 0 1-38.4 56.32 187.392 187.392 0 0 1-56.832 38.4 175.104 175.104 0 0 1-138.24 0 187.392 187.392 0 0 1-56.832-38.4 179.2 179.2 0 0 1-38.4-56.32 170.496 170.496 0 0 1-14.848-69.632 172.544 172.544 0 0 1 12.288-69.632 183.808 183.808 0 0 1 38.4-56.832 178.176 178.176 0 0 1 56.832-38.4 179.712 179.712 0 0 1 138.24 0 178.176 178.176 0 0 1 56.832 38.4 183.808 183.808 0 0 1 38.4 56.832 172.544 172.544 0 0 1 16.384 69.632 170.496 170.496 0 0 1-13.824 69.632zM870.4 91.136h-102.4a23.552 23.552 0 0 0-23.552 23.552v84.48a23.552 23.552 0 0 0 23.552 23.552 23.552 23.552 0 0 0 23.552-23.552v-56.832H870.4a25.6 25.6 0 0 0 0-51.2z"  horiz-adv-x="1024" />

    
    <glyph glyph-name="daohang-fengkongguanli" unicode="&#58906;" d="M872.96 730.112A2391.552 2391.552 0 0 0 512 817.152a2096.128 2096.128 0 0 0-358.4-88.576 29.696 29.696 0 0 1-23.04-29.696v-330.24a406.016 406.016 0 0 1 51.2-158.72A555.52 555.52 0 0 1 307.2 76.8a574.464 574.464 0 0 1 199.68-110.592h14.336A565.76 565.76 0 0 1 716.8 76.8a555.52 555.52 0 0 1 126.976 132.608 385.024 385.024 0 0 1 51.2 160.256V700.928a31.232 31.232 0 0 1-22.016 29.184z m-251.392-331.264l-165.888-204.8c-12.288-14.848-19.456-12.8-14.336 7.168l35.328 153.6h-61.44a25.088 25.088 0 0 0-24.576 34.816l54.272 171.52c5.12 20.48 12.288 34.816 39.424 34.816h59.392c19.456 0 28.16-14.848 20.992-33.28l-44.032-108.544h75.776c39.424 0 49.664-26.112 25.088-55.296z"  horiz-adv-x="1024" />

    
    <glyph glyph-name="daohang-jichuziliaoguanli" unicode="&#58907;" d="M729.088 614.4h110.592c16.384 0 19.968 9.216 10.752 19.456L706.56 775.68c-12.288 11.776-20.48 7.68-20.48-7.68v-112.128a41.472 41.472 0 0 1 43.008-41.472zM844.8 572.928h-159.744a41.472 41.472 0 0 0-43.008 40.96V768.512A25.6 25.6 0 0 1 614.4 793.6H179.2a25.6 25.6 0 0 1-25.6-25.6v-773.632a25.6 25.6 0 0 1 25.6-25.6h665.6a25.6 25.6 0 0 1 25.6 25.6V547.328a25.6 25.6 0 0 1-25.6 25.6zM332.8 496.64H563.2a23.552 23.552 0 0 0 21.504-25.6 23.552 23.552 0 0 0-21.504-25.6H332.288a24.576 24.576 0 0 0-21.504 25.6 23.552 23.552 0 0 0 21.504 26.112z m358.4-326.656h-358.4a25.6 25.6 0 0 0-21.504 25.6 23.552 23.552 0 0 0 21.504 25.6h358.4a26.112 26.112 0 0 0 0-51.2z m0 137.728h-358.4a25.6 25.6 0 0 0-21.504 25.6 23.552 23.552 0 0 0 21.504 25.6h358.4a26.112 26.112 0 0 0 0-51.2z"  horiz-adv-x="1024" />

    
    <glyph glyph-name="daohang-shanghuguanli" unicode="&#58908;" d="M934.912 599.552l-68.608 135.68c-22.528 44.032-27.136 51.2-84.992 51.2H243.2c-58.88 0-57.856 0-84.992-51.2L89.088 599.552A141.824 141.824 0 0 1 204.8 400.384a148.48 148.48 0 0 1 133.12 64.512 30.72 30.72 0 0 0 51.2 0 148.48 148.48 0 0 1 245.76 0 30.72 30.72 0 0 0 51.2 0A148.48 148.48 0 0 1 819.2 400.384a141.824 141.824 0 0 1 115.712 199.168zM831.488 359.424a210.432 210.432 0 0 0-25.6 0 204.8 204.8 0 0 0-127.488 44.032 31.232 31.232 0 0 1-38.912 0 204.8 204.8 0 0 0-256 0 31.232 31.232 0 0 1-38.912 0 204.8 204.8 0 0 0-153.6-42.496 30.208 30.208 0 0 1-24.064-7.68 31.232 31.232 0 0 1-10.24-23.04v-320.512a27.136 27.136 0 0 1 27.136-27.136h654.848a27.136 27.136 0 0 1 27.136 27.136v318.464a30.72 30.72 0 0 1-34.304 31.232z m-140.288-204.8h-358.4a25.6 25.6 0 0 0 0 51.2h358.4a25.6 25.6 0 0 0 0-51.2z"  horiz-adv-x="1024" />

    
    <glyph glyph-name="daohang-jiaoyichaxun" unicode="&#58909;" d="M915.456 160.768c-41.472 16.896-251.392 102.4-291.328 108.544a61.952 61.952 0 0 1-61.44-28.16 58.88 58.88 0 0 1-7.68-54.784 335.36 335.36 0 0 1 38.4-55.808 528.896 528.896 0 0 0-187.392 34.304 364.032 364.032 0 0 0-102.4 86.016c-46.592 51.2-90.624 96.256-138.752 96.256a73.216 73.216 0 0 1-51.2-19.456c-18.432-16.384-35.84-51.2-14.336-111.104 34.816-102.4 172.032-263.168 299.52-271.872h499.712a31.744 31.744 0 0 1 31.232 31.232v153.6a31.232 31.232 0 0 1-14.336 31.232zM171.52 378.88c61.44 0 109.568-51.2 161.28-105.984a370.688 370.688 0 0 1 88.576-78.336 485.888 485.888 0 0 1 112.64-28.16 84.992 84.992 0 0 0-4.096 8.704 90.112 90.112 0 0 0 10.752 83.456 94.208 94.208 0 0 0 77.824 42.496h14.336a1366.016 1366.016 0 0 0 168.96-58.88A358.4 358.4 0 1 1 170.496 378.88z m234.496 286.72a25.6 25.6 0 0 0 36.352 0l76.8-76.8 76.8 76.8a25.6 25.6 0 0 0 36.352-36.352l-81.408-80.896h51.2a23.04 23.04 0 0 0 23.04-23.04v-5.12a23.04 23.04 0 0 0-23.04-23.04h-57.344v-23.04h56.832a23.04 23.04 0 0 0 23.04-23.04v-5.12a23.04 23.04 0 0 0-23.04-23.04h-56.832v-51.2a25.6 25.6 0 0 0-51.2 0v51.2h-51.2a23.04 23.04 0 0 0-23.04 23.04v5.12a23.04 23.04 0 0 0 23.04 23.04h51.2v23.04h-51.2a23.04 23.04 0 0 0-23.04 23.04v5.12a23.04 23.04 0 0 0 23.04 23.04h47.104L406.016 629.248a25.6 25.6 0 0 0 0 36.352z"  horiz-adv-x="1024" />

    
    <glyph glyph-name="daohang-qudaoguanli" unicode="&#58910;" d="M721.408 496.128V703.488a27.648 27.648 0 0 1-13.824 24.064l-182.272 102.4a27.648 27.648 0 0 1-27.136 0l-182.272-102.4a27.648 27.648 0 0 1-13.824-24.064v-207.36a27.648 27.648 0 0 1 13.824-24.064l182.272-102.4a27.648 27.648 0 0 1 27.136 0l182.272 102.4a27.648 27.648 0 0 1 13.824 24.064zM470.016 76.8v207.872a27.648 27.648 0 0 1-13.824 24.064l-182.272 102.4a27.648 27.648 0 0 1-27.136 0l-182.272-102.4a27.648 27.648 0 0 1-13.824-24.064V76.8a27.648 27.648 0 0 1 13.824-24.064l182.272-102.4a27.648 27.648 0 0 1 27.136 0l182.272 102.4a27.648 27.648 0 0 1 13.824 24.064zM972.8 76.8v207.872a27.648 27.648 0 0 1-13.824 24.064l-182.272 102.4a27.648 27.648 0 0 1-27.136 0l-182.272-102.4a27.648 27.648 0 0 1-13.824-24.064V76.8a27.648 27.648 0 0 1 13.824-24.064l182.272-102.4a27.648 27.648 0 0 1 27.136 0l182.272 102.4A27.648 27.648 0 0 1 972.8 76.8z"  horiz-adv-x="1024" />

    
    <glyph glyph-name="daohang-shouqi" unicode="&#58911;" d="M153.6 166.229333h107.52v-72.362666H153.6zM368.64 166.229333h501.76v-72.362666H368.64zM153.6 420.181333h107.52v-72.704H153.6zM368.64 420.181333h501.76v-72.704H368.64zM153.6 674.133333h107.52v-72.704H153.6zM368.64 674.133333h501.76v-72.704H368.64z"  horiz-adv-x="1024" />

    
    <glyph glyph-name="daohang-shenheguanli" unicode="&#58912;" d="M870.4 710.144h-147.456a53.76 53.76 0 0 1-107.008 0H409.6a53.76 53.76 0 0 1-107.008 0H153.6a25.6 25.6 0 0 1-25.6-25.6v-134.144h768V684.544a25.6 25.6 0 0 1-25.6 25.6zM128 87.552v-89.088a27.648 27.648 0 0 1 27.648-27.648H870.4a27.648 27.648 0 0 1 27.648 27.648V494.592H128z m221.184 181.248a25.6 25.6 0 0 0 36.352 0L475.648 179.2l162.816 162.816a25.6 25.6 0 0 0 36.352-36.352l-180.736-181.248a25.6 25.6 0 0 0-36.352 0L349.184 230.4a25.6 25.6 0 0 0 0 38.4z"  horiz-adv-x="1024" />

    
    <glyph glyph-name="daohang-zengzhifuwu" unicode="&#58913;" d="M942.592 482.816l-151.04 289.28a39.936 39.936 0 0 1-35.328 21.504H267.776a39.936 39.936 0 0 1-35.328-21.504L81.408 482.816a39.936 39.936 0 0 1 5.12-44.544l395.264-450.048a39.936 39.936 0 0 1 59.904 0l395.264 450.048a39.936 39.936 0 0 1 5.632 44.544z m-153.6 36.864l-256-287.232-3.072-2.56h-12.8a23.04 23.04 0 0 0-22.016 0.512l-256 289.28a23.552 23.552 0 0 0 0 33.28l3.072 2.56a23.552 23.552 0 0 0 33.28 0l235.52-266.24 236.032 266.24a23.552 23.552 0 0 0 33.28 0l3.072-2.56a23.552 23.552 0 0 0 3.584-33.28z"  horiz-adv-x="1024" />

    
    <glyph glyph-name="daohang-xitongshezhi" unicode="&#58915;" d="M877.568 363.008a113.152 113.152 0 0 0 70.656 108.544 473.088 473.088 0 0 1-119.808 200.704 135.168 135.168 0 0 0-135.68-10.752 121.344 121.344 0 0 0-59.904 119.296A453.12 453.12 0 0 1 512 797.184a424.448 424.448 0 0 1-119.808-16.384 125.952 125.952 0 0 0-58.368-119.296 114.688 114.688 0 0 0-135.68 10.752 473.088 473.088 0 0 1-119.808-200.704 113.152 113.152 0 0 0 70.656-108.544 113.152 113.152 0 0 0-70.656-108.544 473.088 473.088 0 0 1 119.808-200.704 135.168 135.168 0 0 0 135.68 10.752 121.344 121.344 0 0 0 59.904-119.296 453.12 453.12 0 0 1 118.272-16.896 424.448 424.448 0 0 1 119.808 16.384 125.952 125.952 0 0 0 59.904 119.296 114.688 114.688 0 0 0 135.68-10.752 473.088 473.088 0 0 1 119.808 200.704 113.152 113.152 0 0 0-70.656 108.544zM512 183.808a182.272 182.272 0 0 0-184.832 179.2A182.272 182.272 0 0 0 512 542.208a182.272 182.272 0 0 0 184.832-179.2 182.272 182.272 0 0 0-184.832-179.2z m0 58.88a120.32 120.32 0 1 1-120.32 120.32A120.32 120.32 0 0 1 512 242.688z m0 0"  horiz-adv-x="1024" />

    
    <glyph glyph-name="erjiyemian-guanbi" unicode="&#58916;" d="M512 435.2L319.488 629.248a37.376 37.376 0 0 1-51.2-51.2L460.8 384l-194.048-192.512a37.376 37.376 0 1 1 51.2-51.2L512 332.8l192.512-192.512a37.376 37.376 0 1 1 51.2 51.2L563.2 384l192.512 192.512a37.376 37.376 0 0 1-51.2 51.2z"  horiz-adv-x="1024" />

    
    <glyph glyph-name="tongyong-sanjiaojiantou" unicode="&#58917;" d="M524.288 241.664l199.68 266.24a15.36 15.36 0 0 1-12.288 24.576H312.32a15.36 15.36 0 0 1-12.288-24.576l199.68-266.24a15.36 15.36 0 0 1 21.504-3.072z"  horiz-adv-x="1024" />

    
    <glyph glyph-name="xinzeng-caidan" unicode="&#58918;" d="M217.6 678.4l256 0 0-256-256 0 0 256ZM550.4 678.4l256 0 0-256-256 0 0 256ZM550.4 345.6l256 0 0-256-256 0 0 256ZM217.6 345.6l256 0 0-256-256 0 0 256Z"  horiz-adv-x="1024" />

    
    <glyph glyph-name="xinzeng-shanghu" unicode="&#58919;" d="M814.592 537.6l-51.2 96.768c-16.384 31.744-19.456 37.376-60.928 37.376H319.488c-41.984 0-41.472 0-60.928-37.376L209.408 537.6a102.4 102.4 0 0 1 81.408-141.824 105.984 105.984 0 0 1 96.768 46.08 22.016 22.016 0 0 0 36.864 0 106.496 106.496 0 0 1 175.616 0 22.016 22.016 0 0 0 36.864 0 105.984 105.984 0 0 1 96.768-46.08A102.4 102.4 0 0 1 814.592 537.6zM740.864 366.592h-18.432a147.968 147.968 0 0 0-91.136 31.744 22.528 22.528 0 0 1-27.648 0 147.456 147.456 0 0 0-182.272 0 22.528 22.528 0 0 1-27.648 0 147.968 147.968 0 0 0-109.568-30.208 21.504 21.504 0 0 1-17.408-5.632 22.528 22.528 0 0 1-7.168-16.896v-229.376a19.456 19.456 0 0 1 19.456-19.456h466.944a19.456 19.456 0 0 1 19.456 19.456v227.84a22.016 22.016 0 0 1-24.576 22.528z m-102.4-147.456h-256a18.432 18.432 0 0 0-18.432 18.432 18.432 18.432 0 0 0 18.432 18.432h256a18.432 18.432 0 0 0 18.432-18.432 18.432 18.432 0 0 0-16.896-18.432z"  horiz-adv-x="1024" />

    
    <glyph glyph-name="xinzeng-zuzhi" unicode="&#58920;" d="M776.704 342.528h-34.304V522.24a56.832 56.832 0 0 1-56.832 56.832h-45.568v51.2a51.2 51.2 0 0 1-51.2 51.2h-153.6a51.2 51.2 0 0 1-51.2-51.2v-51.2h-45.568A56.832 56.832 0 0 1 281.6 522.24v-179.712h-34.304a51.2 51.2 0 0 1-51.2-51.2v-153.6a51.2 51.2 0 0 1 51.2-51.2h153.6a51.2 51.2 0 0 1 51.2 51.2v46.08h119.296v-46.08a51.2 51.2 0 0 1 51.2-51.2h153.6a51.2 51.2 0 0 1 51.2 51.2v153.6a51.2 51.2 0 0 1-50.688 51.2z m-324.096-107.52v56.32a51.2 51.2 0 0 1-51.2 51.2H332.8V522.24a5.632 5.632 0 0 0 5.632 5.632h45.568v-51.2a51.2 51.2 0 0 1 51.2-51.2h153.6a51.2 51.2 0 0 1 51.2 51.2v51.2h45.568a5.632 5.632 0 0 0 5.632-5.632v-179.712h-68.096a51.2 51.2 0 0 1-51.2-51.2v-56.32z"  horiz-adv-x="1024" />

    
    <glyph glyph-name="zhuangtailan-xiaoxi" unicode="&#58921;" d="M797.696 267.264a211.456 211.456 0 0 0-73.216 153.6v138.24a212.48 212.48 0 0 1-166.4 204.8 44.032 44.032 0 0 1 0 5.12 47.104 47.104 0 0 1-94.72 0 44.032 44.032 0 0 1 0-5.12 212.48 212.48 0 0 1-166.4-204.8v-132.096a211.456 211.456 0 0 0-73.216-159.232A46.592 46.592 0 0 1 204.8 230.4a47.616 47.616 0 0 1 47.104-47.104h520.192A47.616 47.616 0 0 1 819.2 230.4a46.592 46.592 0 0 1-21.504 36.864zM588.8 140.8a38.4 38.4 0 0 1-38.4-38.4 38.4 38.4 0 0 0-76.8 0 38.4 38.4 0 0 1-76.8 0 115.2 115.2 0 0 1 230.4 0 38.4 38.4 0 0 1-38.4 38.4z"  horiz-adv-x="1024" />

    
    <glyph glyph-name="zhuangtailan-tuichu" unicode="&#58922;" d="M851.456 412.16l-194.56 291.84A51.2 51.2 0 0 1 563.2 675.84V537.6H460.8a51.2 51.2 0 0 1-51.2-51.2v-204.8a51.2 51.2 0 0 1 51.2-51.2h102.4v-138.24a51.2 51.2 0 0 1 93.696-28.16l194.56 291.84a51.2 51.2 0 0 1 0 56.32zM409.6 128H358.4a51.2 51.2 0 0 0-51.2 51.2V588.8a51.2 51.2 0 0 0 51.2 51.2h51.2a51.2 51.2 0 0 1 0 102.4H307.2a102.4 102.4 0 0 1-102.4-102.4v-512a102.4 102.4 0 0 1 102.4-102.4h102.4a51.2 51.2 0 0 1 0 102.4z"  horiz-adv-x="1024" />

    
    <glyph glyph-name="zhuangtailan-wode" unicode="&#58923;" d="M512 614.4m-179.2 0a179.2 179.2 0 1 1 358.4 0 179.2 179.2 0 1 1-358.4 0ZM563.2 384H460.8a256 256 0 0 1-256-256 102.4 102.4 0 0 1 102.4-102.4h409.6a102.4 102.4 0 0 1 102.4 102.4 256 256 0 0 1-256 256z"  horiz-adv-x="1024" />

    
    <glyph glyph-name="yanzhengma" unicode="&#58914;" d="M716.8 564.224c23.552-4.096 41.472-26.112 24.576-51.2l-193.536-189.952c-12.288-12.288-47.616-58.88-72.192-51.2s-29.696 23.04-40.96 34.304L344.064 392.192c-9.216 9.216-26.112 27.136-13.824 46.08a32.768 32.768 0 0 0 43.008 9.216l105.472-102.4 218.624 215.552a16.384 16.384 0 0 0 19.456 3.584zM872.96 757.76a648.704 648.704 0 0 0-325.632 51.2 256 256 0 0 0-35.328 26.112C460.8 769.536 269.312 746.496 151.04 757.76v-395.264a752.64 752.64 0 0 1 3.584-158.208 261.12 261.12 0 0 1 61.44-86.528 629.248 629.248 0 0 1 290.816-184.32 114.176 114.176 0 0 1 56.32 14.848 592.896 592.896 0 0 1 118.784 64.512c65.024 45.056 148.992 105.984 180.736 182.272A566.784 566.784 0 0 1 870.4 353.28c0 115.2 2.56 289.792 2.56 404.48z m-60.928-534.528a409.6 409.6 0 0 0-153.6-153.6 504.832 504.832 0 0 0-102.4-54.784 97.28 97.28 0 0 0-51.2-12.288 535.552 535.552 0 0 0-247.808 156.672A222.208 222.208 0 0 0 209.92 230.4a640.512 640.512 0 0 0-5.12 135.68V701.952c102.4-10.752 265.728 10.24 307.2 66.048a218.624 218.624 0 0 1 29.696-22.528 551.936 551.936 0 0 1 277.504-43.52v-344.064a482.304 482.304 0 0 0-7.168-134.656z"  horiz-adv-x="1024" />

    
    <glyph glyph-name="daohang-tongyixiaoxiguanli" unicode="&#58924;" d="M848.384 665.6H162.816l343.04-343.04 342.528 343.04zM913.408 658.432l-390.144-390.144a25.6 25.6 0 0 0-36.352 0L104.96 650.752A25.088 25.088 0 0 1 102.4 640v-512a25.6 25.6 0 0 1 25.6-25.6h768a25.6 25.6 0 0 1 25.6 25.6V640a25.6 25.6 0 0 1-8.192 18.432z"  horiz-adv-x="1024" />

    
    <glyph glyph-name="daohang-chanpinguanli" unicode="&#58925;" d="M119.296 552.448m-16.384 0a16.384 16.384 0 1 1 32.768 0 16.384 16.384 0 1 1-32.768 0ZM448 428.544L126.464 571.392C97.28 588.8 102.4 566.784 102.4 545.792v-429.056c0-14.336 9.216-19.456 25.6-25.6l320-142.336c28.16-13.312 25.6 3.584 25.6 25.6V402.944c0 14.336-12.8 19.968-25.6 25.6zM884.736 571.392L563.2 428.544c-14.848-6.144-25.6-11.264-25.6-25.6V-25.6c0-22.016 0-38.912 25.6-25.6l321.536 142.336c16.384 6.144 25.6 11.264 25.6 25.6V545.792c0.512 20.992 3.584 43.008-25.6 25.6zM893.44 673.28l-368.64 153.6a34.304 34.304 0 0 1-36.864 0l-368.64-153.6c-24.576-10.752-23.552-26.112 0-36.864l368.64-168.448a35.328 35.328 0 0 1 36.864 0l369.152 168.448c23.04 12.8 24.064 27.648-0.512 36.864z"  horiz-adv-x="1024" />

    
    <glyph glyph-name="jiantou-shangshang" unicode="&#58926;" d="M223.085714 306.468571l-73.142857 73.142858L512 741.668571l362.057143-362.057142-73.142857-73.142858L512 595.382857 223.085714 306.468571zM223.085714 13.897143l-73.142857 73.142857L512 449.097143l362.057143-362.057143-73.142857-73.142857L512 302.811429l-288.914286-288.914286z"  horiz-adv-x="1024" />

    
    <glyph glyph-name="jiantou-xia" unicode="&#58927;" d="M800.914286 601.234286l73.142857-73.142857L512 166.765714 149.942857 528.091429l73.142857 73.142857L512 313.051429l288.914286 288.182857z"  horiz-adv-x="1024" />

    
    <glyph glyph-name="jiantou-shang" unicode="&#58928;" d="M800.914286 166.765714l73.142857 73.142857L512 601.234286 149.942857 239.908571l73.142857-73.142857L512 454.948571l288.914286-288.182857z"  horiz-adv-x="1024" />

    
    <glyph glyph-name="jiantou-you" unicode="&#58929;" d="M294.765714 672.914286l73.142857 73.142857L729.234286 384l-361.325715-362.057143-73.142857 73.142857L582.948571 384 294.765714 672.914286z"  horiz-adv-x="1024" />

    
    <glyph glyph-name="jiantou-xiaxia" unicode="&#58930;" d="M800.914286 449.097143l73.142857-73.142857L512 13.897143 149.942857 375.954286l73.142857 73.142857L512 160.182857l288.914286 288.914286zM800.914286 741.668571l73.142857-73.142857L512 306.468571 149.942857 668.525714l73.142857 73.142857L512 452.754286l288.914286 288.914285z"  horiz-adv-x="1024" />

    
    <glyph glyph-name="jiantou-zuo" unicode="&#58931;" d="M729.234286 672.914286l-73.142857 73.142857L294.765714 384l361.325715-362.057143 73.142857 73.142857L441.051429 384l288.182857 288.914286z"  horiz-adv-x="1024" />

    
    <glyph glyph-name="daohang-renwuguanli" unicode="&#58932;" d="M353.28 211.968a39.424 39.424 0 1 0 39.424 39.424 39.424 39.424 0 0 0-39.424-39.424z m0-66.048a105.984 105.984 0 1 1-105.984 105.984 105.984 105.984 0 0 1 105.984-105.984z m193.024 132.096a34.304 34.304 0 1 1 0-68.608h195.584a34.304 34.304 0 0 1 0 68.608z m0 299.52a34.304 34.304 0 0 1 0-68.608h195.584a34.304 34.304 0 0 1 0 68.608zM168.448 754.176h687.104a26.624 26.624 0 0 0 26.624-26.624v-687.104a26.624 26.624 0 0 0-26.624-26.624H168.448a26.624 26.624 0 0 0-26.624 26.624V727.552a26.624 26.624 0 0 0 26.624 26.624zM358.4 551.424l-44.544 44.544a31.744 31.744 0 0 1-45.056-45.056L337.408 486.4a31.744 31.744 0 0 1 45.056 0l140.288 140.288a31.744 31.744 0 0 1-45.056 45.056z"  horiz-adv-x="1024" />

    
    <glyph glyph-name="daohang-qianzhiji" unicode="&#58933;" d="M195.072 758.272h633.856a28.672 28.672 0 0 0 28.672-28.672v-57.856a28.672 28.672 0 0 0-28.672-28.672H195.072a28.672 28.672 0 0 0-28.672 28.672V729.6a28.672 28.672 0 0 0 28.672 28.672z m0-173.056h633.856a28.672 28.672 0 0 0 28.672-28.672v-57.344a28.672 28.672 0 0 0-28.672-28.672H195.072a28.672 28.672 0 0 0-28.672 28.672V556.544a28.672 28.672 0 0 0 28.672 29.184zM754.688 281.6a11.264 11.264 0 0 1-11.264-11.776v-63.488a11.264 11.264 0 0 1 11.264-11.776h34.816a11.776 11.776 0 0 1 11.264 11.776v64.512a11.776 11.776 0 0 1-11.264 11.776z m-115.2 0a11.264 11.264 0 0 1-11.264-11.776v-63.488a11.264 11.264 0 0 1 11.264-11.776h34.304a11.776 11.776 0 0 1 11.776 11.776v64.512a11.776 11.776 0 0 1-11.776 11.776z m-372.224-84.992a43.008 43.008 0 1 1-43.008 43.008 43.008 43.008 0 0 1 43.008-43.008z m144.384 0a43.008 43.008 0 1 1-43.008 43.008 43.008 43.008 0 0 1 40.96-43.008z m272.896-129.536H339.456v-28.672a28.672 28.672 0 0 0-28.672-28.672H252.928a28.672 28.672 0 0 0-28.672 28.672v28.672H137.728a28.672 28.672 0 0 0-28.672 28.672V384a28.672 28.672 0 0 0 28.672 28.672h748.544a28.672 28.672 0 0 0 28.672-28.672v-288.256a28.672 28.672 0 0 0-28.672-28.672h-86.016v-28.672a28.672 28.672 0 0 0-28.672-28.672h-57.856a28.672 28.672 0 0 0-28.672 28.672z"  horiz-adv-x="1024" />

    
    <glyph glyph-name="daohang-huabanfuben" unicode="&#58934;" d="M844.8 102.39999999999998V706.56a10.24 10.24 0 0 1-10.24 10.24H230.4V742.4a25.6 25.6 0 0 0 25.6 25.6h614.4a25.6 25.6 0 0 0 25.6-25.6v-614.4a25.6 25.6 0 0 0-25.6-25.6zM256 358.4a25.6 25.6 0 1 1 0-51.2h51.2a25.6 25.6 0 1 1 0 51.2z m0-153.6a25.6 25.6 0 0 1 0-51.2h51.2a25.6 25.6 0 0 1 0 51.2z m0 307.2a25.6 25.6 0 0 1 0-51.2h51.2a25.6 25.6 0 0 1 0 51.2z m175.616-153.6a25.6 25.6 0 1 1 0-51.2h230.4a25.6 25.6 0 0 1 0 51.2z m0-153.6a25.6 25.6 0 1 1 0-51.2h230.4a25.6 25.6 0 0 1 0 51.2z m0 307.2a25.6 25.6 0 0 1 0-51.2h230.4a25.6 25.6 0 0 1 0 51.2zM153.6 665.6h614.4a25.6 25.6 0 0 0 25.6-25.6v-614.4a25.6 25.6 0 0 0-25.6-25.6H153.6a25.6 25.6 0 0 0-25.6 25.6V640a25.6 25.6 0 0 0 25.6 25.6z"  horiz-adv-x="1024" />

    
    <glyph glyph-name="ronghuierdaitubiao-" unicode="&#58935;" d="M102.4-40.96c0-15.36 10.24-25.6 25.6-25.6h768c15.36 0 25.6 10.24 25.6 25.6v25.6H102.4v-25.6zM819.2 291.84h-209.92l-20.48 92.16c87.04 30.72 153.6 117.76 153.6 215.04 0 128-102.4 230.4-230.4 230.4s-230.4-102.4-230.4-230.4c0-102.4 66.56-184.32 153.6-215.04l-20.48-92.16H204.8c-56.32 0-102.4-46.08-102.4-102.4v-153.6h819.2v153.6c0 56.32-46.08 102.4-102.4 102.4z"  horiz-adv-x="1024" />

    
    <glyph glyph-name="ronghuierdaitubiao-1" unicode="&#58936;" d="M353.28 542.72c-46.08 0-81.92-35.84-81.92-76.8 0-46.08 35.84-81.92 81.92-81.92 20.48 0 35.84 5.12 51.2 15.36 20.48 15.36 30.72 35.84 30.72 61.44-5.12 46.08-40.96 81.92-81.92 81.92zM880.64 727.04H143.36c-30.72 0-51.2-20.48-51.2-51.2v-588.8c0-30.72 20.48-51.2 51.2-51.2h732.16c30.72 0 51.2 20.48 51.2 51.2V675.84c5.12 30.72-20.48 51.2-46.08 51.2z m-414.72-506.88c-10.24 56.32-56.32 97.28-112.64 97.28s-102.4-40.96-112.64-97.28h-51.2c5.12 61.44 46.08 107.52 97.28 133.12-35.84 25.6-61.44 66.56-61.44 112.64C225.28 537.6 286.72 599.04 358.4 599.04S491.52 537.6 491.52 465.92c0-46.08-25.6-87.04-61.44-112.64 51.2-25.6 92.16-71.68 97.28-133.12H465.92z m378.88 56.32c0-10.24-10.24-20.48-20.48-20.48h-117.76c-10.24 0-15.36 5.12-20.48 15.36V281.6c0 10.24 10.24 20.48 20.48 20.48h117.76c10.24 0 15.36-5.12 20.48-15.36v-10.24z m-25.6 97.28h-235.52c-10.24 0-20.48 5.12-25.6 15.36v10.24c0 15.36 10.24 25.6 25.6 25.6H819.2c10.24 0 20.48-5.12 25.6-15.36v-10.24c0-15.36-10.24-25.6-25.6-25.6z m0 117.76h-158.72c-10.24 0-15.36 5.12-20.48 10.24 0 5.12-5.12 10.24-5.12 15.36 0 15.36 10.24 25.6 25.6 25.6H819.2c10.24 0 20.48-5.12 25.6-15.36v-10.24c0-15.36-10.24-25.6-25.6-25.6z"  horiz-adv-x="1024" />

    


  </font>
</defs>
</svg>
